<?xml version="1.0" encoding="UTF-8"?>
<svg xmlns="http://www.w3.org/2000/svg" xmlns:xlink="http://www.w3.org/1999/xlink" width="484.1pt" height="195.59pt" viewBox="0 0 484.1 195.59" version="1.1">
<defs>
<clipPath id="clip1">
  <path d="M 0 0 L 137 0 L 137 195.589844 L 0 195.589844 Z M 0 0 "/>
</clipPath>
<clipPath id="clip2">
  <path d="M 407 71 L 484.101563 71 L 484.101563 195.589844 L 407 195.589844 Z M 407 71 "/>
</clipPath>
</defs>
<g id="surface1">
<g clip-path="url(#clip1)" clip-rule="nonzero">
<path style=" stroke:none;fill-rule:nonzero;fill:rgb(2.69928%,51.799011%,45.498657%);fill-opacity:1;" d="M 0 -0.00390625 L 39.070313 13.742188 L 39.070313 151.273438 L 94.105469 119.503906 L 67.121094 106.84375 L 50.101563 64.476563 L 136.8125 94.9375 L 136.8125 139.226563 L 39.09375 195.589844 L 0 173.84375 L 0 -0.00390625 "/>
</g>
<path style=" stroke:none;fill-rule:nonzero;fill:rgb(2.69928%,51.799011%,45.498657%);fill-opacity:1;" d="M 209.21875 101.769531 L 209.21875 144.03125 L 227.890625 144.03125 C 235.972656 144.03125 242.238281 142.117188 246.6875 138.296875 C 251.136719 134.476563 253.363281 129.234375 253.363281 122.574219 C 253.363281 108.703125 243.914063 101.769531 225.023438 101.769531 Z M 209.21875 51.484375 L 209.21875 89.402344 L 223.304688 89.402344 C 230.839844 89.402344 236.765625 87.589844 241.078125 83.957031 C 245.390625 80.328125 247.546875 75.207031 247.546875 68.601563 C 247.546875 57.191406 240.039063 51.484375 225.023438 51.484375 Z M 195.460938 156.476563 L 195.460938 39.035156 L 228.875 39.035156 C 239.03125 39.035156 247.082031 41.519531 253.035156 46.488281 C 258.984375 51.457031 261.960938 57.929688 261.960938 65.898438 C 261.960938 72.558594 260.160156 78.347656 256.554688 83.261719 C 252.953125 88.175781 247.984375 91.671875 241.652344 93.742188 L 241.652344 94.070313 C 249.566406 95 255.902344 97.988281 260.652344 103.039063 C 265.402344 108.089844 267.777344 114.65625 267.777344 122.734375 C 267.777344 132.78125 264.171875 140.917969 256.964844 147.140625 C 249.757813 153.363281 240.667969 156.476563 229.695313 156.476563 L 195.460938 156.476563 "/>
<path style=" stroke:none;fill-rule:nonzero;fill:rgb(2.69928%,51.799011%,45.498657%);fill-opacity:1;" d="M 298.726563 156.476563 L 285.292969 156.476563 L 285.292969 73.253906 L 298.726563 73.253906 Z M 292.171875 53.964844 C 289.769531 53.964844 287.722656 53.148438 286.03125 51.507813 C 284.339844 49.871094 283.492188 47.796875 283.492188 45.285156 C 283.492188 42.773438 284.339844 40.683594 286.03125 39.019531 C 287.722656 37.355469 289.769531 36.523438 292.171875 36.523438 C 294.628906 36.523438 296.71875 37.355469 298.4375 39.019531 C 300.15625 40.683594 301.019531 42.773438 301.019531 45.285156 C 301.019531 47.6875 300.15625 49.734375 298.4375 51.425781 C 296.71875 53.117188 294.628906 53.964844 292.171875 53.964844 "/>
<path style=" stroke:none;fill-rule:nonzero;fill:rgb(2.69928%,51.799011%,45.498657%);fill-opacity:1;" d="M 389.980469 156.476563 L 376.546875 156.476563 L 376.546875 109.261719 C 376.546875 91.464844 370.550781 82.5625 357.558594 82.5625 C 350.84375 82.5625 345.285156 85.089844 340.890625 90.140625 C 336.496094 95.191406 334.300781 101.5625 334.300781 109.261719 L 334.300781 156.476563 L 320.867188 156.476563 L 320.867188 73.253906 L 334.300781 73.253906 L 334.300781 86.890625 L 334.625 86.890625 C 340.960938 76.300781 349.984375 71.261719 361.644531 71.261719 C 370.816406 71.261719 377.832031 74.222656 382.691406 80.148438 C 387.550781 86.070313 389.980469 94.628906 389.980469 105.820313 L 389.980469 156.476563 "/>
<g clip-path="url(#clip2)" clip-rule="nonzero">
<path style=" stroke:none;fill-rule:nonzero;fill:rgb(2.69928%,51.799011%,45.498657%);fill-opacity:1;" d="M 470.667969 118.558594 L 470.667969 106.859375 C 470.667969 100.199219 468.417969 94.492188 463.914063 89.742188 C 459.40625 84.992188 454.1875 82.617188 447.472656 82.617188 C 439.175781 82.617188 432.675781 85.636719 427.980469 91.667969 C 423.285156 97.703125 420.9375 106.152344 420.9375 117.015625 C 420.9375 126.351563 423.191406 133.148438 427.695313 138.746094 C 432.199219 144.34375 438.164063 147.140625 445.589844 147.140625 C 453.121094 147.140625 458.863281 144.464844 463.585938 139.113281 C 468.308594 133.765625 470.667969 126.910156 470.667969 118.558594 Z M 484.101563 149.386719 C 484.101563 180.179688 469.359375 195.578125 439.875 195.578125 C 429.503906 195.578125 420.949219 193.730469 413.199219 189.800781 L 416.722656 178.28125 C 416.722656 178.28125 425.824219 184.335938 439.710938 184.335938 C 460.351563 184.335938 470.667969 173.558594 470.667969 151.609375 L 470.667969 142.527344 L 470.34375 142.527344 C 463.953125 153.230469 454.957031 158.441406 442.125 158.441406 C 431.699219 158.441406 423.304688 155.300781 416.941406 147.847656 C 410.582031 140.394531 407.402344 130.390625 407.402344 117.832031 C 407.402344 103.582031 410.828125 92.253906 417.679688 83.84375 C 424.53125 75.4375 433.910156 71.234375 445.8125 71.234375 C 457.113281 71.234375 464.882813 75.765625 470.34375 84.828125 L 470.667969 84.828125 L 470.667969 73.253906 L 484.101563 73.253906 L 484.101563 149.386719 "/>
</g>
</g>
</svg>
